<svg width="36" height="32" viewBox="0 0 36 32" fill="none" xmlns="http://www.w3.org/2000/svg">
<path d="M0 1.5C0 0.66875 0.671472 0 1.50611 0H4.36143C5.74203 0 6.96574 0.8 7.5368 2H33.3289C34.9793 2 36.1842 3.5625 35.7512 5.15L33.1782 14.6687C32.6448 16.6313 30.8563 18 28.8168 18H10.7122L11.051 19.7812C11.1891 20.4875 11.8104 21 12.5321 21H30.6241C31.4588 21 32.1302 21.6688 32.1302 22.5C32.1302 23.3312 31.4588 24 30.6241 24H12.5321C10.3607 24 8.49694 22.4625 8.09532 20.3438L4.85719 3.40625C4.81326 3.16875 4.60617 3 4.36143 3H1.50611C0.671472 3 0 2.33125 0 1.5ZM8.03256 29C8.03256 28.606 8.11047 28.2159 8.26185 27.8519C8.41323 27.488 8.63511 27.1573 8.91482 26.8787C9.19453 26.6001 9.52659 26.3791 9.89205 26.2284C10.2575 26.0776 10.6492 26 11.0448 26C11.4403 26 11.832 26.0776 12.1975 26.2284C12.563 26.3791 12.895 26.6001 13.1747 26.8787C13.4544 27.1573 13.6763 27.488 13.8277 27.8519C13.9791 28.2159 14.057 28.606 14.057 29C14.057 29.394 13.9791 29.7841 13.8277 30.1481C13.6763 30.512 13.4544 30.8427 13.1747 31.1213C12.895 31.3999 12.563 31.6209 12.1975 31.7716C11.832 31.9224 11.4403 32 11.0448 32C10.6492 32 10.2575 31.9224 9.89205 31.7716C9.52659 31.6209 9.19453 31.3999 8.91482 31.1213C8.63511 30.8427 8.41323 30.512 8.26185 30.1481C8.11047 29.7841 8.03256 29.394 8.03256 29ZM29.118 26C29.9169 26 30.6831 26.3161 31.248 26.8787C31.8129 27.4413 32.1302 28.2044 32.1302 29C32.1302 29.7956 31.8129 30.5587 31.248 31.1213C30.6831 31.6839 29.9169 32 29.118 32C28.3191 32 27.553 31.6839 26.9881 31.1213C26.4232 30.5587 26.1058 29.7956 26.1058 29C26.1058 28.2044 26.4232 27.4413 26.9881 26.8787C27.553 26.3161 28.3191 26 29.118 26Z" fill="white"/>
</svg>
