<svg width="34" height="34" viewBox="0 0 34 34" fill="none" xmlns="http://www.w3.org/2000/svg">
<path d="M3.4 27.0903H6.8V34L15.4717 27.0903H23.8C25.6751 27.0903 27.2 25.5715 27.2 23.704V10.1589C27.2 8.29132 25.6751 6.77257 23.8 6.77257H3.4C1.5249 6.77257 0 8.29132 0 10.1589V23.704C0 25.5715 1.5249 27.0903 3.4 27.0903Z" fill="white"/>
<path d="M30.6 0H10.2C8.3249 0 6.8 1.51875 6.8 3.38629H27.2C29.0751 3.38629 30.6 4.90503 30.6 6.77257V20.3177C32.4751 20.3177 34 18.799 34 16.9314V3.38629C34 1.51875 32.4751 0 30.6 0Z" fill="white"/>
</svg>
