<svg width="34" height="34" viewBox="0 0 34 34" fill="none" xmlns="http://www.w3.org/2000/svg">
<path d="M16.9982 8.52449C14.7498 8.52449 12.5936 9.41763 11.0038 11.0074C9.41398 12.5973 8.52084 14.7535 8.52084 17.0018C8.52084 19.2502 9.41398 21.4064 11.0038 22.9962C12.5936 24.586 14.7498 25.4792 16.9982 25.4792C19.2465 25.4792 21.4027 24.586 22.9925 22.9962C24.5824 21.4064 25.4755 19.2502 25.4755 17.0018C25.4755 14.7535 24.5824 12.5973 22.9925 11.0074C21.4027 9.41763 19.2465 8.52449 16.9982 8.52449ZM16.9982 22.5073C15.5375 22.5073 14.1367 21.9271 13.1039 20.8943C12.0711 19.8614 11.4908 18.4606 11.4908 17C11.4908 15.5394 12.0711 14.1385 13.1039 13.1057C14.1367 12.0729 15.5375 11.4927 16.9982 11.4927C18.4588 11.4927 19.8596 12.0729 20.8924 13.1057C21.9253 14.1385 22.5055 15.5394 22.5055 17C22.5055 18.4606 21.9253 19.8614 20.8924 20.8943C19.8596 21.9271 18.4588 22.5073 16.9982 22.5073Z" fill="black"/>
<path d="M25.811 10.1892C26.9025 10.1892 27.7873 9.30432 27.7873 8.21282C27.7873 7.12132 26.9025 6.23649 25.811 6.23649C24.7195 6.23649 23.8347 7.12132 23.8347 8.21282C23.8347 9.30432 24.7195 10.1892 25.811 10.1892Z" fill="black"/>
<path d="M32.6438 6.20349C32.2194 5.10749 31.5708 4.11217 30.7396 3.28126C29.9084 2.45035 28.9128 1.80215 27.8167 1.37816C26.534 0.896643 25.1788 0.636281 23.809 0.608155C22.0435 0.531155 21.4843 0.509155 17.0073 0.509155C12.5303 0.509155 11.9565 0.509155 10.2057 0.608155C8.83688 0.634843 7.48272 0.895258 6.20167 1.37816C5.10522 1.80166 4.1094 2.44968 3.27812 3.28066C2.44683 4.11163 1.79842 5.1072 1.3745 6.20349C0.892895 7.48611 0.63313 8.84136 0.606336 10.2112C0.527503 11.9748 0.50367 12.534 0.50367 17.0128C0.50367 21.4898 0.50367 22.06 0.606336 23.8145C0.633836 25.1858 0.892336 26.5388 1.3745 27.824C1.79961 28.9199 2.44865 29.9151 3.28014 30.7459C4.11163 31.5768 5.10729 32.225 6.2035 32.6493C7.48213 33.1502 8.83685 33.4292 10.2093 33.4743C11.9748 33.5513 12.534 33.5752 17.011 33.5752C21.488 33.5752 22.0618 33.5752 23.8127 33.4743C25.1824 33.4465 26.5374 33.1867 27.8203 32.7062C28.9162 32.2812 29.9115 31.6324 30.7426 30.8013C31.5738 29.9701 32.2225 28.9749 32.6475 27.879C33.1297 26.5957 33.3882 25.2427 33.4157 23.8713C33.4945 22.1077 33.5183 21.5485 33.5183 17.0697C33.5183 12.5908 33.5183 12.0225 33.4157 10.268C33.3943 8.87882 33.1332 7.50378 32.6438 6.20349ZM30.4108 23.6788C30.399 24.7354 30.2062 25.7821 29.8407 26.7735C29.5653 27.4864 29.1439 28.1338 28.6033 28.6741C28.0627 29.2143 27.4151 29.6354 26.702 29.9103C25.7216 30.2741 24.686 30.467 23.6403 30.4805C21.8987 30.5612 21.4073 30.5813 16.9413 30.5813C12.4717 30.5813 12.0152 30.5813 10.2405 30.4805C9.19537 30.4677 8.16027 30.2748 7.18067 29.9103C6.4651 29.6371 5.81484 29.2168 5.27197 28.6764C4.7291 28.1361 4.3057 27.4878 4.02917 26.7735C3.66882 25.7927 3.47607 24.7584 3.459 23.7137C3.38017 21.972 3.36184 21.4807 3.36184 17.0147C3.36184 12.5468 3.36184 12.0903 3.459 10.3138C3.47085 9.25786 3.6637 8.21176 4.02917 7.22099C4.58834 5.77449 5.73417 4.63599 7.18067 4.08232C8.16075 3.71958 9.19555 3.52676 10.2405 3.51216C11.984 3.43332 12.4735 3.41132 16.9413 3.41132C21.4092 3.41132 21.8675 3.41132 23.6403 3.51216C24.6861 3.52474 25.7218 3.71762 26.702 4.08232C27.415 4.35782 28.0626 4.77936 28.6031 5.31988C29.1436 5.8604 29.5652 6.50795 29.8407 7.22099C30.201 8.20173 30.3938 9.23612 30.4108 10.2808C30.4897 12.0243 30.5098 12.5138 30.5098 16.9817C30.5098 21.4477 30.5098 21.928 30.431 23.6807H30.4108V23.6788Z" fill="black"/>
</svg>
