<svg width="31" height="32" viewBox="0 0 31 32" fill="none" xmlns="http://www.w3.org/2000/svg">
<path d="M25.242 12.9981C25.242 15.8664 24.357 18.516 22.866 20.6657L30.3861 28.5833C31.1287 29.3644 31.1287 30.633 30.3861 31.4141C29.6436 32.1953 28.4378 32.1953 27.6953 31.4141L20.1751 23.4966C18.1317 25.0713 15.6131 25.9962 12.8866 25.9962C6.06149 25.9962 0.531265 20.1783 0.531265 12.9981C0.531265 5.8179 6.06149 0 12.8866 0C19.7118 0 25.242 5.8179 25.242 12.9981ZM12.8866 21.9968C14.0099 21.9968 15.1222 21.764 16.16 21.3118C17.1978 20.8596 18.1408 20.1967 18.935 19.3611C19.7293 18.5255 20.3594 17.5335 20.7893 16.4417C21.2191 15.35 21.4404 14.1798 21.4404 12.9981C21.4404 11.8164 21.2191 10.6462 20.7893 9.55445C20.3594 8.46268 19.7293 7.47067 18.935 6.63507C18.1408 5.79946 17.1978 5.13662 16.16 4.6844C15.1222 4.23217 14.0099 3.99941 12.8866 3.99941C11.7634 3.99941 10.6511 4.23217 9.61328 4.6844C8.57549 5.13662 7.63254 5.79946 6.83825 6.63507C6.04396 7.47067 5.4139 8.46268 4.98404 9.55445C4.55417 10.6462 4.33292 11.8164 4.33292 12.9981C4.33292 14.1798 4.55417 15.35 4.98404 16.4417C5.4139 17.5335 6.04396 18.5255 6.83825 19.3611C7.63254 20.1967 8.57549 20.8596 9.61328 21.3118C10.6511 21.764 11.7634 21.9968 12.8866 21.9968Z" fill="#656565"/>
</svg>
