<svg width="38" height="26" viewBox="0 0 38 26" fill="none" xmlns="http://www.w3.org/2000/svg">
<path d="M36.5872 4.20547C36.3783 3.43071 35.9703 2.72415 35.4035 2.15611C34.8368 1.58808 34.1311 1.17838 33.3568 0.967806C30.4858 0.179473 19 0.16664 19 0.16664C19 0.16664 7.516 0.153806 4.64317 0.907306C3.86936 1.12757 3.16517 1.54306 2.59821 2.11389C2.03124 2.68471 1.62053 3.3917 1.4055 4.16697C0.648335 7.03797 0.641002 12.9926 0.641002 12.9926C0.641002 12.9926 0.633668 18.9766 1.38533 21.8183C1.807 23.3895 3.0445 24.6306 4.6175 25.0541C7.51784 25.8425 18.9725 25.8553 18.9725 25.8553C18.9725 25.8553 30.4583 25.8681 33.3293 25.1165C34.1039 24.9063 34.8102 24.4975 35.3784 23.9306C35.9465 23.3638 36.3569 22.6584 36.5688 21.8843C37.3278 19.0151 37.3333 13.0623 37.3333 13.0623C37.3333 13.0623 37.37 7.07647 36.5872 4.20547ZM15.326 18.5091L15.3352 7.50914L24.8813 13.0183L15.326 18.5091Z" fill="black"/>
</svg>
